<?xml version="1.0" encoding="iso-8859-1"?>
<!-- Generator: Adobe Illustrator 19.0.0, SVG Export Plug-In . SVG Version: 6.00 Build 0)  -->
<svg xmlns="http://www.w3.org/2000/svg" xmlns:xlink="http://www.w3.org/1999/xlink" version="1.1" id="Layer_1" x="0px" y="0px" viewBox="0 0 512.003 512.003" style="enable-background:new 0 0 512.003 512.003;" xml:space="preserve" width="512" height="512">
<g>
	<path style="fill:#239B56" d="M436.033,422.003c-19.555,0-36.228,12.541-42.42,30H31.033v30h362.58c6.192,17.459,22.865,30,42.42,30   c24.813,0,45-20.187,45-45S460.847,422.003,436.033,422.003z M436.033,482.003c-8.271,0-15-6.729-15-15s6.729-15,15-15   s15,6.729,15,15S444.305,482.003,436.033,482.003z"/>
	<path style="fill:#239B56" d="M295.539,23.451C287.649,8.986,272.511,0,256.034,0c-16.478,0-31.615,8.986-39.523,23.485L36.528,355.454   c-16.346,29.967,5.315,66.548,39.505,66.548h270.001c24.813,0,45-20.187,45-45c0-24.813-20.187-45-45-45H151.737L256.01,139.227   l77.062,142.987c11.909,21.836,39.225,29.871,61.063,17.956c21.781-11.884,29.835-39.274,17.98-61.004L295.539,23.451z    M379.765,273.834c-7.391,4.032-16.46,1.156-20.321-5.92L256.057,76.081L101.403,362.003h244.63c8.271,0,15,6.729,15,15   s-6.729,15-15,15H76.032c-11.369,0-18.64-12.153-13.15-22.216L242.866,37.817c3.848-7.055,10.49-7.817,13.168-7.817   c2.677,0,9.319,0.762,13.14,7.766L385.75,253.479C389.711,260.741,387.027,269.872,379.765,273.834z"/>
</g>















</svg>  
